<svg width="687" height="680" viewBox="0 0 687 680" fill="none" xmlns="http://www.w3.org/2000/svg">
<path d="M343.149 636.08C340.263 636.08 337.473 635.984 334.779 635.792C332.278 635.792 329.584 635.696 326.698 635.503L311.402 663.209C308.516 668.596 304.572 672.637 299.57 675.33C294.76 678.024 289.468 678.697 283.696 677.351C277.732 676.389 272.73 673.887 268.689 669.847C264.841 665.806 262.532 660.612 261.763 654.262L257.145 623.382C246.178 620.111 235.981 616.455 226.553 612.415L202.888 632.906C198.078 636.946 192.979 639.351 187.592 640.121C182.204 640.89 176.913 639.736 171.719 636.658C166.524 633.772 162.772 629.731 160.463 624.536C158.154 619.341 157.577 613.666 158.731 607.509L165.369 576.917C160.944 573.646 156.615 570.183 152.382 566.527C148.149 563.064 144.109 559.408 140.261 555.56L111.112 567.104C98.2211 572.107 88.0238 569.798 80.5201 560.178C76.6721 555.56 74.4595 550.462 73.8823 544.882C73.3051 539.11 74.8443 533.53 78.4999 528.143L94.9503 501.88C91.8718 497.262 88.9858 492.645 86.2922 488.027C83.5986 483.217 81.0011 478.407 78.4999 473.597L47.3308 473.886C40.9816 473.886 35.4019 472.539 30.5919 469.845C25.9742 467.152 22.7996 462.919 21.068 457.147C18.9516 451.375 18.5667 445.795 19.9136 440.408C21.4528 434.828 24.7236 430.114 29.7261 426.266L54.2573 407.218C52.9105 402.024 51.7561 396.732 50.794 391.345C50.0244 385.958 49.351 380.378 48.7738 374.606L18.7591 364.794C12.7947 362.87 8.17705 359.695 4.90622 355.27C1.63539 350.652 -2.70605e-05 345.457 -2.70605e-05 339.685C-2.70605e-05 333.721 1.63539 328.526 4.90622 324.101C8.17705 319.483 12.7947 316.212 18.7591 314.288L48.7738 304.764C49.351 298.992 50.0244 293.413 50.794 288.025C51.7561 282.638 52.9105 277.347 54.2573 272.152L29.7261 252.527C19.144 244.254 16.1617 234.249 20.7794 222.513C22.7034 216.741 25.9742 212.315 30.5919 209.237C35.4019 206.159 40.8854 204.715 47.0422 204.908L78.2113 206.062C80.9049 201.06 83.5986 196.25 86.2922 191.632C88.9858 186.822 91.8718 182.108 94.9503 177.491L78.4999 150.651C71.5734 139.106 72.1507 128.621 80.2315 119.193C84.0796 114.768 88.6972 111.785 94.0845 110.246C99.4717 108.707 105.148 109.188 111.112 111.689L139.972 123.522C144.205 119.674 148.342 116.018 152.382 112.555C156.615 109.092 160.944 105.725 165.369 102.454L159.309 71.5734C158.154 65.4166 158.539 59.8369 160.463 54.8345C162.579 49.6396 166.331 45.503 171.719 42.4246C176.913 39.5385 182.301 38.3841 187.88 38.9613C193.46 39.3461 198.559 41.7512 203.176 46.1764L226.264 66.9558C231.267 64.8394 236.366 62.8192 241.56 60.8951C246.755 58.9711 251.95 57.2395 257.145 55.7003L262.051 24.8198C263.013 18.6629 265.322 13.5643 268.978 9.52386C272.633 5.29102 277.54 2.6936 283.696 1.73159C289.468 0.76958 294.856 1.53919 299.858 4.04041C305.053 6.34923 309.093 10.2935 311.98 15.8731L326.698 43.579C329.584 43.3866 332.278 43.2904 334.779 43.2904C337.473 43.2904 340.263 43.2904 343.149 43.2904C345.842 43.2904 348.536 43.2904 351.229 43.2904C353.923 43.2904 356.617 43.3866 359.31 43.579L374.606 16.1617C377.685 10.5821 381.629 6.54163 386.439 4.04041C391.441 1.34679 396.829 0.577178 402.601 1.73159C408.373 2.886 413.279 5.48342 417.319 9.52386C421.36 13.5643 423.765 18.6629 424.535 24.8198L428.864 55.7003C434.251 57.2395 439.446 58.9711 444.448 60.8951C449.643 62.8192 454.742 64.8394 459.744 66.9558L483.41 46.465C488.22 42.4246 493.318 40.0195 498.705 39.2499C504.093 38.4803 509.384 39.6347 514.579 42.7132C519.773 45.5992 523.525 49.6396 525.834 54.8345C528.143 60.0293 528.624 65.609 527.277 71.5734L520.928 102.454C525.161 105.725 529.394 109.092 533.626 112.555C537.859 116.018 541.9 119.674 545.748 123.522L575.185 111.978C588.076 107.168 598.273 109.573 605.777 119.193C609.625 123.811 611.742 128.909 612.126 134.489C612.704 140.068 611.261 145.648 607.797 151.228L591.347 177.491C594.233 181.916 597.023 186.534 599.716 191.344C602.602 196.154 605.2 200.964 607.509 205.774L638.966 205.196C645.316 205.196 650.799 206.64 655.417 209.526C660.034 212.219 663.305 216.452 665.229 222.224C667.346 227.804 667.634 233.383 666.095 238.963C664.556 244.543 661.285 249.16 656.283 252.816L631.751 272.152C633.098 277.347 634.253 282.638 635.215 288.025C636.177 293.413 637.042 298.992 637.812 304.764L667.538 314.288C673.31 316.212 677.832 319.483 681.102 324.101C684.566 328.526 686.297 333.721 686.297 339.685C686.297 345.457 684.566 350.652 681.102 355.27C677.832 359.695 673.31 362.87 667.538 364.794L637.812 374.606C637.042 380.378 636.177 385.958 635.215 391.345C634.253 396.732 633.098 402.024 631.751 407.218L656.283 426.843C661.285 430.691 664.556 435.309 666.095 440.696C667.827 445.891 667.634 451.278 665.518 456.858C663.401 462.438 660.034 466.863 655.417 470.134C650.799 473.212 645.412 474.655 639.255 474.463L608.086 473.308C605.392 478.118 602.602 482.929 599.716 487.739C597.023 492.549 594.233 497.166 591.347 501.591L607.797 528.72C610.876 534.107 612.319 539.591 612.126 545.17C611.934 550.558 609.817 555.56 605.777 560.178C602.121 564.603 597.504 567.585 591.924 569.125C586.537 570.664 580.957 570.183 575.185 567.682L546.036 555.56C541.996 559.408 537.859 563.064 533.626 566.527C529.586 570.183 525.353 573.646 520.928 576.917L526.989 607.797C528.143 613.954 527.662 619.534 525.546 624.536C523.429 629.731 519.773 633.868 514.579 636.946C509.384 639.64 503.997 640.698 498.417 640.121C492.837 639.736 487.739 637.427 483.121 633.194L460.033 612.415C454.838 614.531 449.643 616.455 444.448 618.187C439.446 620.111 434.251 621.843 428.864 623.382L423.957 654.551C422.995 660.708 420.687 665.806 417.031 669.847C413.375 674.08 408.565 676.581 402.601 677.351C396.636 678.505 391.153 677.832 386.15 675.33C381.148 672.829 377.204 668.885 374.318 663.498L359.31 635.503C356.617 635.696 353.923 635.792 351.229 635.792C348.536 635.984 345.842 636.08 343.149 636.08ZM343.149 554.983C372.778 554.983 400.581 549.403 426.555 538.244C452.529 526.892 475.425 511.404 495.242 491.779C515.06 472.154 530.452 449.354 541.419 423.38C552.578 397.406 558.158 369.508 558.158 339.685C558.158 309.863 552.578 281.965 541.419 255.991C530.452 230.016 515.06 207.217 495.242 187.592C475.425 167.774 452.529 152.286 426.555 141.127C400.581 129.967 372.778 124.388 343.149 124.388C313.519 124.388 285.62 129.967 259.454 141.127C233.48 152.286 210.584 167.774 190.766 187.592C171.141 207.217 155.749 230.016 144.59 255.991C133.431 281.965 127.851 309.863 127.851 339.685C127.851 369.508 133.431 397.406 144.59 423.38C155.749 449.354 171.141 472.154 190.766 491.779C210.584 511.404 233.48 526.892 259.454 538.244C285.62 549.403 313.519 554.983 343.149 554.983ZM271.864 286.582L183.263 133.623L245.601 103.608L330.739 250.507L271.864 286.582ZM424.535 374.029L424.823 303.899H595.676V374.029H424.535ZM329.873 428.575L241.56 574.319L179.799 543.15L272.152 390.768L329.873 428.575ZM343.149 435.79C325.448 435.79 309.286 431.461 294.663 422.803C280.041 414.145 268.4 402.601 259.742 388.171C251.084 373.548 246.755 357.386 246.755 339.685C246.755 321.984 251.084 305.823 259.742 291.2C268.4 276.578 280.041 264.937 294.663 256.279C309.286 247.621 325.448 243.292 343.149 243.292C360.85 243.292 377.011 247.621 391.634 256.279C406.256 264.937 417.897 276.578 426.555 291.2C435.213 305.823 439.542 321.984 439.542 339.685C439.542 357.386 435.213 373.548 426.555 388.171C417.897 402.601 406.256 414.145 391.634 422.803C377.011 431.461 360.85 435.79 343.149 435.79ZM343.149 373.452C352.384 373.452 360.272 370.181 366.814 363.639C373.548 356.905 376.915 348.921 376.915 339.685C376.915 330.45 373.548 322.562 366.814 316.02C360.272 309.286 352.384 305.919 343.149 305.919C333.721 305.919 325.736 309.286 319.195 316.02C312.653 322.562 309.382 330.45 309.382 339.685C309.382 348.921 312.653 356.905 319.195 363.639C325.736 370.181 333.721 373.452 343.149 373.452Z" fill="black" style="fill:black;fill-opacity:1;"/>
</svg>
